<svg width="47" height="47" viewBox="0 0 47 47" fill="none" xmlns="http://www.w3.org/2000/svg">
<g clip-path="url(#clip0_2_220)">
<path d="M35.7651 40.5982H10.6329C7.81379 40.5951 5.11107 39.4739 3.11768 37.4805C1.1243 35.4871 0.00307032 32.7844 0 29.9653L0 16.4326C0.00307032 13.6135 1.1243 10.9108 3.11768 8.91743C5.11107 6.92404 7.81379 5.80281 10.6329 5.79974H35.7651C38.5841 5.80281 41.2869 6.92404 43.2803 8.91743C45.2736 10.9108 46.3949 13.6135 46.3979 16.4326V29.9653C46.3949 32.7844 45.2736 35.4871 43.2803 37.4805C41.2869 39.4739 38.5841 40.5951 35.7651 40.5982ZM10.6329 11.5995C9.35104 11.5995 8.12171 12.1087 7.21533 13.0151C6.30894 13.9215 5.79974 15.1508 5.79974 16.4326V29.9653C5.79974 31.2472 6.30894 32.4765 7.21533 33.3829C8.12171 34.2892 9.35104 34.7985 10.6329 34.7985H35.7651C37.0469 34.7985 38.2762 34.2892 39.1826 33.3829C40.089 32.4765 40.5982 31.2472 40.5982 29.9653V16.4326C40.5982 15.1508 40.089 13.9215 39.1826 13.0151C38.2762 12.1087 37.0469 11.5995 35.7651 11.5995H10.6329ZM10.6329 13.5327C10.0593 13.5327 9.49866 13.7028 9.02178 14.0214C8.5449 14.3401 8.17321 14.793 7.95373 15.3229C7.73424 15.8528 7.67682 16.4358 7.78871 16.9983C7.9006 17.5609 8.17679 18.0776 8.58234 18.4831C8.9879 18.8887 9.5046 19.1649 10.0671 19.2768C10.6296 19.3886 11.2127 19.3312 11.7426 19.1117C12.2725 18.8923 12.7254 18.5206 13.044 18.0437C13.3627 17.5668 13.5327 17.0061 13.5327 16.4326C13.5327 15.6635 13.2272 14.9259 12.6834 14.3821C12.1395 13.8383 11.402 13.5327 10.6329 13.5327ZM32.8652 16.4326C32.8652 17.0061 33.0353 17.5668 33.3539 18.0437C33.6726 18.5206 34.1255 18.8923 34.6553 19.1117C35.1852 19.3312 35.7683 19.3886 36.3308 19.2768C36.8933 19.1649 37.41 18.8887 37.8156 18.4831C38.2211 18.0776 38.4973 17.5609 38.6092 16.9983C38.7211 16.4358 38.6637 15.8528 38.4442 15.3229C38.2247 14.793 37.853 14.3401 37.3762 14.0214C36.8993 13.7028 36.3386 13.5327 35.7651 13.5327C34.996 13.5327 34.2584 13.8383 33.7146 14.3821C33.1707 14.9259 32.8652 15.6635 32.8652 16.4326ZM12.684 27.9142C12.2784 27.5088 11.7617 27.2328 11.1992 27.121C10.6368 27.0093 10.0538 27.0668 9.52401 27.2864C8.99424 27.5059 8.54145 27.8776 8.22289 28.3544C7.90433 28.8313 7.7343 29.3919 7.7343 29.9653C7.7343 30.5388 7.90433 31.0994 8.22289 31.5762C8.54145 32.0531 8.99424 32.4247 9.52401 32.6443C10.0538 32.8638 10.6368 32.9214 11.1992 32.8096C11.7617 32.6979 12.2784 32.4219 12.684 32.0165C12.9535 31.7472 13.1673 31.4274 13.3131 31.0755C13.459 30.7235 13.534 30.3463 13.534 29.9653C13.534 29.5844 13.459 29.2071 13.3131 28.8552C13.1673 28.5032 12.9535 28.1835 12.684 27.9142ZM32.8652 29.9653C32.8652 30.5389 33.0353 31.0995 33.3539 31.5764C33.6726 32.0533 34.1255 32.425 34.6553 32.6445C35.1852 32.8639 35.7683 32.9214 36.3308 32.8095C36.8933 32.6976 37.41 32.4214 37.8156 32.0159C38.2211 31.6103 38.4973 31.0936 38.6092 30.5311C38.7211 29.9686 38.6637 29.3855 38.4442 28.8556C38.2247 28.3257 37.853 27.8728 37.3762 27.5542C36.8993 27.2355 36.3386 27.0655 35.7651 27.0655C34.996 27.0655 34.2584 27.371 33.7146 27.9148C33.1707 28.4586 32.8652 29.1962 32.8652 29.9653ZM16.4326 23.199C16.4326 21.8607 16.8294 20.5525 17.5729 19.4398C18.3164 18.3271 19.3732 17.4598 20.6096 16.9477C21.846 16.4355 23.2065 16.3015 24.519 16.5626C25.8316 16.8237 27.0372 17.4681 27.9835 18.4144C28.9298 19.3607 29.5742 20.5664 29.8353 21.8789C30.0964 23.1915 29.9624 24.552 29.4503 25.7883C28.9381 27.0247 28.0709 28.0815 26.9582 28.825C25.8454 29.5685 24.5372 29.9653 23.199 29.9653C21.4044 29.9653 19.6834 29.2525 18.4144 27.9835C17.1455 26.7146 16.4326 24.9935 16.4326 23.199Z" fill="#23306A"/>
</g>
<defs>
<clipPath id="clip0_2_220">
<rect width="46.3979" height="46.3979" fill="white"/>
</clipPath>
</defs>
</svg>
