<svg width="30" height="30" viewBox="0 0 30 30" fill="none" xmlns="http://www.w3.org/2000/svg">
<path d="M30 12.5C29.9985 11.53 29.715 10.5814 29.1839 9.76973C28.6528 8.95807 27.897 8.31843 27.0088 7.92874C27.0988 7.66624 27.1975 7.40249 27.275 7.14124C27.5212 6.31653 27.5697 5.44544 27.4166 4.5985C27.2635 3.75156 26.9131 2.95258 26.3937 2.26624C25.8715 1.56013 25.1902 0.986999 24.4051 0.593268C23.62 0.199538 22.7533 -0.00371136 21.875 -1.14111e-05H8.125C7.24674 -0.00371136 6.37995 0.199538 5.59488 0.593268C4.80981 0.986999 4.12853 1.56013 3.60625 2.26624C3.08782 2.95302 2.73844 3.75226 2.58642 4.59922C2.4344 5.44617 2.48402 6.31703 2.73125 7.14124C2.80875 7.40249 2.9075 7.66624 2.9975 7.92874C2.10807 8.31749 1.35102 8.95674 0.81875 9.76847C0.286476 10.5802 0.00198764 11.5293 0 12.5C0 16.4375 2.97375 21 11.25 21.2287V24.375C11.2747 24.6273 11.2431 24.882 11.1576 25.1207C11.0721 25.3594 10.9347 25.5762 10.7555 25.7554C10.5762 25.9347 10.3594 26.0721 10.1207 26.1576C9.88201 26.2431 9.62734 26.2746 9.375 26.25H8.125C7.62772 26.25 7.15081 26.4475 6.79917 26.7992C6.44754 27.1508 6.25 27.6277 6.25 28.125C6.25 28.6223 6.44754 29.0992 6.79917 29.4508C7.15081 29.8024 7.62772 30 8.125 30H21.875C22.3723 30 22.8492 29.8024 23.2008 29.4508C23.5525 29.0992 23.75 28.6223 23.75 28.125C23.75 27.6277 23.5525 27.1508 23.2008 26.7992C22.8492 26.4475 22.3723 26.25 21.875 26.25H20.6475C20.3936 26.2771 20.1369 26.2474 19.8959 26.163C19.655 26.0787 19.4357 25.9419 19.2541 25.7624C19.0725 25.583 18.9331 25.3654 18.8459 25.1255C18.7587 24.8855 18.726 24.6292 18.75 24.375V21.2287C27.0262 21 30 16.4375 30 12.5ZM26.25 12.5C26.25 14.4837 24.8075 16.575 20.9825 17.2637C22.8124 15.5655 24.3423 13.5704 25.5075 11.3625C25.7277 11.4603 25.915 11.6198 26.0467 11.8216C26.1785 12.0234 26.2491 12.259 26.25 12.5ZM6.61 4.51124C6.78498 4.27426 7.01332 4.08185 7.27654 3.94959C7.53975 3.81733 7.83043 3.74895 8.125 3.74999H21.875C22.1696 3.74895 22.4602 3.81733 22.7235 3.94959C22.9867 4.08185 23.215 4.27426 23.39 4.51124C23.5586 4.73085 23.6727 4.98733 23.7229 5.25961C23.7731 5.53189 23.758 5.81219 23.6788 6.07749C22.6644 9.37442 20.7938 12.3433 18.2575 14.6812C17.2504 15.4333 16.4319 16.4092 15.8665 17.5318C15.3012 18.6544 15.0046 19.8931 15 21.15V21.15C14.9953 19.8927 14.6985 18.6538 14.1332 17.5308C13.5679 16.4078 12.7495 15.4315 11.7425 14.6787C9.20583 12.3416 7.33504 9.37305 6.32125 6.07624C6.24226 5.81112 6.22725 5.53106 6.27744 5.25902C6.32763 4.98698 6.4416 4.73071 6.61 4.51124V4.51124ZM3.75 12.5C3.75093 12.259 3.82152 12.0234 3.95325 11.8216C4.08499 11.6198 4.27225 11.4603 4.4925 11.3625C5.65783 13.5706 7.18815 15.5658 9.01875 17.2637C5.1925 16.5762 3.75 14.4837 3.75 12.5Z" fill="white"/>
</svg>
