<svg width="28" height="30" viewBox="0 0 28 30" fill="none" xmlns="http://www.w3.org/2000/svg">
<path d="M8.73418 27.9499C10.0618 29.2571 11.8483 29.9929 13.7115 29.9999C15.5747 30.007 17.3667 29.2846 18.7042 27.9874L23.4629 23.5661C26.0365 20.97 27.4805 17.4623 27.4805 13.8068C27.4805 10.1512 26.0365 6.64354 23.4629 4.04738C22.1888 2.76477 20.6735 1.74685 19.0044 1.05223C17.3353 0.357605 15.5452 0 13.7373 0C11.9294 0 10.1393 0.357605 8.47021 1.05223C6.80107 1.74685 5.28581 2.76477 4.01168 4.04738C1.43251 6.65423 -0.00978767 10.1761 4.99973e-05 13.8432C0.00988766 17.5103 1.47106 21.0244 4.06418 23.6174L8.73418 27.9499ZM6.66668 6.69238C7.59236 5.75993 8.69341 5.01988 9.90638 4.51486C11.1194 4.00984 12.4203 3.74984 13.7342 3.74984C15.0481 3.74984 16.349 4.00984 17.562 4.51486C18.7749 5.01988 19.876 5.75993 20.8017 6.69238V6.69238C22.6746 8.57372 23.7308 11.1172 23.7415 13.7718C23.7523 16.4264 22.7167 18.9784 20.8592 20.8749L16.1092 25.2811C15.462 25.8981 14.6001 26.2392 13.706 26.2322C12.8118 26.2252 11.9554 25.8707 11.3179 25.2436L6.66668 20.9211C4.79048 19.0286 3.7378 16.4716 3.7378 13.8068C3.7378 11.1419 4.79048 8.58487 6.66668 6.69238V6.69238ZM7.48418 13.7499C7.48418 13.2526 7.68172 12.7757 8.03335 12.4241C8.38498 12.0724 8.8619 11.8749 9.35918 11.8749H11.8592V9.37488C11.8592 8.8776 12.0567 8.40069 12.4084 8.04906C12.76 7.69743 13.2369 7.49988 13.7342 7.49988C14.2315 7.49988 14.7084 7.69743 15.06 8.04906C15.4116 8.40069 15.6092 8.8776 15.6092 9.37488V11.8749H18.1092C18.6065 11.8749 19.0834 12.0724 19.435 12.4241C19.7866 12.7757 19.9842 13.2526 19.9842 13.7499C19.9842 14.2472 19.7866 14.7241 19.435 15.0757C19.0834 15.4273 18.6065 15.6249 18.1092 15.6249H15.6092V18.1249C15.6092 18.6222 15.4116 19.0991 15.06 19.4507C14.7084 19.8023 14.2315 19.9999 13.7342 19.9999C13.2369 19.9999 12.76 19.8023 12.4084 19.4507C12.0567 19.0991 11.8592 18.6222 11.8592 18.1249V15.6249H9.35918C8.8619 15.6249 8.38498 15.4273 8.03335 15.0757C7.68172 14.7241 7.48418 14.2472 7.48418 13.7499Z" fill="white"/>
</svg>
