<svg width="30" height="30" viewBox="0 0 30 30" fill="none" xmlns="http://www.w3.org/2000/svg">
<path d="M23.1251 30.0003H16.2926C7.13881 30.179 -0.932436 22.819 0.0700644 13.6065C0.381011 10.3387 1.7532 7.26259 3.97698 4.84807C6.20076 2.43356 9.15385 0.813445 12.3851 0.235252C14.5088 -0.158214 16.6934 -0.0741902 18.7806 0.481232C20.8678 1.03665 22.8053 2.04955 24.4526 3.4465C26.196 4.91243 27.5965 6.74318 28.555 8.80952C29.5135 10.8759 30.0068 13.1274 30.0001 15.4053V23.1253C29.9981 24.948 29.2731 26.6955 27.9842 27.9844C26.6953 29.2733 24.9478 29.9983 23.1251 30.0003ZM15.0376 3.75025C12.2307 3.74783 9.52381 4.79232 7.4461 6.67956C5.36839 8.56679 4.06922 11.1611 3.80256 13.9553C3.64971 15.4456 3.81332 16.9515 4.2827 18.3743C4.75207 19.797 5.51663 21.1046 6.52631 22.2115C7.78537 23.5248 9.30372 24.562 10.985 25.2573C12.6662 25.9526 14.4737 26.2907 16.2926 26.2503H23.1251C23.9539 26.2503 24.7487 25.921 25.3348 25.335C25.9208 24.7489 26.2501 23.9541 26.2501 23.1253V15.4053C26.2562 13.6748 25.8824 11.9642 25.1552 10.3939C24.428 8.82374 23.365 7.43228 22.0413 6.31775C20.0863 4.65629 17.6032 3.74599 15.0376 3.75025V3.75025ZM18.1251 10.0003C17.2555 10.0437 16.4386 10.4297 15.8529 11.0739C15.2673 11.7181 14.9606 12.568 15.0001 13.4378C15.0368 13.0051 14.9833 12.5695 14.8429 12.1586C14.7026 11.7477 14.4784 11.3704 14.1847 11.0506C13.8909 10.7308 13.5339 10.4755 13.1364 10.3009C12.7388 10.1263 12.3093 10.0361 11.8751 10.0361C11.4408 10.0361 11.0113 10.1263 10.6138 10.3009C10.2162 10.4755 9.85924 10.7308 9.56547 11.0506C9.2717 11.3704 9.04754 11.7477 8.90718 12.1586C8.76682 12.5695 8.71332 13.0051 8.75006 13.4378C8.75006 16.1415 12.2751 19.5015 14.0313 20.9103C14.3061 21.1306 14.6478 21.2506 15.0001 21.2506C15.3523 21.2506 15.694 21.1306 15.9688 20.9103C17.7251 19.5003 21.2501 16.1415 21.2501 13.4378C21.2895 12.568 20.9828 11.7181 20.3972 11.0739C19.8116 10.4297 18.9946 10.0437 18.1251 10.0003Z" fill="#BB2649"/>
</svg>
