<svg width="30" height="30" viewBox="0 0 30 30" fill="none" xmlns="http://www.w3.org/2000/svg">
<g clip-path="url(#clip0_0_21)">
<path d="M23.125 0H6.875C5.05235 0.00231532 3.30501 0.727387 2.0162 2.0162C0.727387 3.30501 0.00231532 5.05235 0 6.875L0 18.125C0.00231532 19.9477 0.727387 21.695 2.0162 22.9838C3.30501 24.2726 5.05235 24.9977 6.875 25H8.6725L13.7975 29.285C14.1348 29.5669 14.5604 29.7214 15 29.7214C15.4396 29.7214 15.8652 29.5669 16.2025 29.285L21.3275 25H23.125C24.9477 24.9977 26.695 24.2726 27.9838 22.9838C29.2726 21.695 29.9977 19.9477 30 18.125V6.875C29.9977 5.05235 29.2726 3.30501 27.9838 2.0162C26.695 0.727387 24.9477 0.00231532 23.125 0V0ZM26.25 18.125C26.25 18.9538 25.9208 19.7487 25.3347 20.3347C24.7487 20.9208 23.9538 21.25 23.125 21.25H20.6463C20.2065 21.2503 19.7809 21.4052 19.4438 21.6875L15 25.4025L10.5562 21.6875C10.2191 21.4052 9.79348 21.2503 9.35375 21.25H6.875C6.0462 21.25 5.25134 20.9208 4.66529 20.3347C4.07924 19.7487 3.75 18.9538 3.75 18.125V6.875C3.75 6.0462 4.07924 5.25134 4.66529 4.66529C5.25134 4.07924 6.0462 3.75 6.875 3.75H23.125C23.9538 3.75 24.7487 4.07924 25.3347 4.66529C25.9208 5.25134 26.25 6.0462 26.25 6.875V18.125Z" fill="#AB6EEF"/>
<path d="M9.375 11.25H13.125C13.6223 11.25 14.0992 11.0525 14.4508 10.7008C14.8025 10.3492 15 9.87228 15 9.375C15 8.87772 14.8025 8.40081 14.4508 8.04917C14.0992 7.69754 13.6223 7.5 13.125 7.5H9.375C8.87772 7.5 8.40081 7.69754 8.04917 8.04917C7.69754 8.40081 7.5 8.87772 7.5 9.375C7.5 9.87228 7.69754 10.3492 8.04917 10.7008C8.40081 11.0525 8.87772 11.25 9.375 11.25V11.25Z" fill="#AB6EEF"/>
<path d="M20.625 13.7502H9.375C8.87772 13.7502 8.40081 13.9477 8.04917 14.2994C7.69754 14.651 7.5 15.1279 7.5 15.6252C7.5 16.1225 7.69754 16.5994 8.04917 16.951C8.40081 17.3027 8.87772 17.5002 9.375 17.5002H20.625C21.1223 17.5002 21.5992 17.3027 21.9508 16.951C22.3025 16.5994 22.5 16.1225 22.5 15.6252C22.5 15.1279 22.3025 14.651 21.9508 14.2994C21.5992 13.9477 21.1223 13.7502 20.625 13.7502Z" fill="#AB6EEF"/>
</g>
<defs>
<clipPath id="clip0_0_21">
<rect width="30" height="30" fill="white"/>
</clipPath>
</defs>
</svg>
