<svg width="10" height="12" viewBox="0 0 10 12" fill="none" xmlns="http://www.w3.org/2000/svg">
<path d="M9.42915 3.4361L6.73728 0.744229C6.23669 0.266527 5.57134 0 4.87939 0C4.18745 0 3.52209 0.266527 3.02151 0.744229L0.329636 3.4361C0.118503 3.64733 -7.03568e-05 3.93378 3.13202e-08 4.23244C7.04195e-05 4.5311 0.118779 4.81749 0.330011 5.02863C0.541243 5.23976 0.827695 5.35833 1.12635 5.35826C1.42501 5.35819 1.71141 5.23948 1.92254 5.02825L3.7534 3.19739V10.5486C3.7534 10.8472 3.87203 11.1336 4.0832 11.3448C4.29436 11.556 4.58076 11.6746 4.87939 11.6746C5.17802 11.6746 5.46442 11.556 5.67559 11.3448C5.88675 11.1336 6.00538 10.8472 6.00538 10.5486V3.19739L7.83625 5.02825C7.94079 5.13284 8.06491 5.21582 8.20152 5.27244C8.33813 5.32907 8.48455 5.35823 8.63243 5.35826C8.78031 5.3583 8.92675 5.32921 9.06339 5.27265C9.20002 5.21609 9.32418 5.13317 9.42877 5.02863C9.53337 4.92409 9.61634 4.79997 9.67297 4.66336C9.72959 4.52675 9.75875 4.38032 9.75879 4.23244C9.75882 4.08456 9.72973 3.93812 9.67317 3.80149C9.61661 3.66485 9.53369 3.54069 9.42915 3.4361Z" fill="#82FFB7"/>
</svg>
