<svg width="400" height="200" viewBox="0 0 400 200" fill="none" xmlns="http://www.w3.org/2000/svg">
<path d="M0 200C0 146.957 21.0714 96.0859 58.5786 58.5786C96.0859 21.0714 146.957 0 200 0C253.043 0 303.914 21.0714 341.421 58.5786C378.929 96.0859 400 146.957 400 200H370C370 177.675 365.603 155.569 357.06 134.944C348.516 114.318 335.994 95.5778 320.208 79.7918C288.327 47.9107 245.087 30 200 30C154.913 30 111.673 47.9107 79.7918 79.7918C47.9107 111.673 30 154.913 30 200H0Z" fill="#E9EEF4"/>
</svg>
